<?xml version="1.0" encoding="UTF-8"?><svg id="Layer_1" xmlns="http://www.w3.org/2000/svg" xmlns:xlink="http://www.w3.org/1999/xlink" viewBox="0 0 180 180"><defs><style>.cls-1{fill:url(#linear-gradient);}.cls-1,.cls-2{stroke-width:0px;}.cls-2{fill:#fff;}</style><linearGradient id="linear-gradient" x1="0" y1="968.61" x2="176.06" y2="968.61" gradientTransform="translate(0 1058.61) scale(1 -1)" gradientUnits="userSpaceOnUse"><stop offset="0" stop-color="#32b7d6"/><stop offset="1" stop-color="#f4963c"/></linearGradient></defs><rect class="cls-1" width="180" height="180"/><path class="cls-2" d="M59,145.09h-28.34V36.03h45.12c12.24,0,21.62,3.19,28.12,9.55s9.76,15.33,9.76,26.9-3.25,20.54-9.76,26.9c-6.5,6.36-15.88,9.55-28.12,9.55h-16.78s0,36.16,0,36.16ZM59,86.08h9.4c10.41,0,15.62-4.53,15.62-13.59s-5.2-13.59-15.62-13.59h-9.4v27.2h0ZM156.11,36l-28.48,109.09h-27.27l28.48-109.09s27.27,0,27.27,0Z"/></svg>