<?xml version="1.0" encoding="UTF-8"?><svg id="Layer_1" xmlns="http://www.w3.org/2000/svg" viewBox="0 0 180 180"><defs><style>.cls-1{fill:#c2d7e6;}.cls-1,.cls-2,.cls-3,.cls-4,.cls-5,.cls-6,.cls-7,.cls-8,.cls-9,.cls-10,.cls-11,.cls-12{stroke-width:0px;}.cls-2{fill:#4b5d65;}.cls-3{fill:#5d7f8f;}.cls-4{fill:#616160;}.cls-5{fill:#e8b058;}.cls-6{fill:#c5d3e3;}.cls-7{fill:#2e5063;}.cls-8{fill:#d6e5ed;}.cls-13{opacity:.2;}.cls-9{fill:#fcb144;}.cls-10{fill:#8ab4d0;}.cls-11{fill:#fff;}.cls-12{fill:#000;opacity:.09;}</style></defs><rect class="cls-9" x="0" y="0" width="180" height="180" rx="90" ry="90"/><ellipse class="cls-12" cx="90.9" cy="148.15" rx="32.28" ry="7.14"/><path class="cls-5" d="M87.38,97.07s-.07.04-.11.07c-.01,0-.04-.01-.06-.01.06-.01.11-.03.17-.06Z"/><path class="cls-11" d="M124.42,108.41c-.01-.07-.03-.14-.06-.2-.56-1.71-1.24-3.04-2.08-4.05-.87-1.04-1.9-1.74-3.08-2.07-1.97-.54-4.23-.03-6.95,1.54-2.47,1.43-5.1,3.63-7.13,5.4-.84.74-1.7,1.51-2.54,2.27-.13.03-.26.07-.38.11-.67.2-1.31.4-1.95.57-4.05,1.07-8.32,1.01-12.36-.14-2.48-.73-4.82-1.84-7.28-3.02-1.31-.63-2.68-1.28-4.05-1.87-5.12-2.15-9.42-2.71-13.17-1.7-3.61.97-7.64,4.33-8.21,8.68-.1.2-.16.41-.16.66,0,4.72.93,9.29,2.75,13.61,1.75,4.16,4.28,7.89,7.5,11.12s6.94,5.73,11.1,7.48c4.32,1.82,8.89,2.75,13.61,2.75s9.31-.93,13.62-2.75c4.16-1.75,7.9-4.28,11.1-7.48,3.22-3.22,5.74-6.95,7.5-11.12,1.82-4.32,2.75-8.89,2.75-13.61,0-2.08-.19-4.16-.54-6.18ZM58.13,114.54c.03-.34.1-.68.2-1.03.31-1.01.94-2.02,1.82-2.94,1.13-1.15,2.59-2.02,4.03-2.42.16-.04.33-.07.48-.1.41-.1.84-.17,1.27-.2.67-.07,1.38-.09,2.12-.04.07,0,.13,0,.2.01.1,0,.19.01.28.03.07,0,.16,0,.23.01.03,0,.07.01.1.01.14.01.3.04.44.06.1.01.2.03.3.04.19.03.37.06.56.1.3.06.58.11.9.19.34.09.68.17,1.03.27.7.2,1.43.44,2.17.73.37.14.76.29,1.14.46,1.31.56,2.64,1.2,3.92,1.81,2.47,1.18,5.02,2.39,7.75,3.19,3.46,1,7.07,1.27,10.62.81-1.91,1.54-3.52,2.64-5.09,3.49-2.68,1.48-5.37,2.34-9.01,2.86-9.63,1.43-15.59.64-19.27-.78h0s-.01-.01-.01-.01h-.01c-1.51-.58-2.64-1.27-3.48-1.95-.6-.48-1.07-1-1.43-1.48-.07-.07-.13-.16-.19-.23-.66-.93-.95-1.75-1.08-2.29-.03-.27,0-.47,0-.6ZM119.45,127.04c-1.61,3.8-3.9,7.23-6.84,10.16-2.94,2.94-6.36,5.24-10.16,6.85-3.95,1.67-8.14,2.51-12.46,2.51s-8.49-.84-12.44-2.51c-3.8-1.61-7.23-3.92-10.16-6.85-2.94-2.94-5.23-6.36-6.84-10.16-.34-.8-.64-1.6-.91-2.41-.36-1.08-.66-2.19-.9-3.32.01.01.04.03.06.06,1.33,1.11,2.95,2.01,4.86,2.69h.01c1.2.43,2.49.77,3.9,1.03,4.45.81,9.98.73,16.46-.21,3.95-.58,7.04-1.58,10-3.21,2.78-1.52,5.57-3.65,9.65-7.31l.11-.11c.1-.09.19-.17.28-.26,1.01-.9,2.04-1.82,3.02-2.68.4-.36.81-.71,1.23-1.04,3.71-3.16,7.61-5.96,10.08-5.27,1.25.34,2.29,1.71,3.08,4.05.31,1.82.48,3.69.48,5.56,0,4.32-.86,8.49-2.52,12.44Z"/><path class="cls-10" d="M121.49,109.04c-.78-2.34-1.82-3.71-3.08-4.05-2.47-.68-6.37,2.11-10.08,5.27-.41.33-.83.68-1.23,1.04-.98.86-2.01,1.78-3.02,2.68-.1.09-.19.17-.28.26l-.11.11c-4.08,3.66-6.87,5.79-9.65,7.31-2.96,1.62-6.06,2.62-10,3.21-6.48.94-12.01,1.03-16.46.21-1.41-.26-2.71-.6-3.9-1.01h-.01c-1.91-.7-3.53-1.6-4.86-2.71-.01-.03-.04-.04-.06-.06.24,1.13.54,2.24.9,3.32.27.81.57,1.61.91,2.41,1.61,3.8,3.91,7.23,6.84,10.16,2.94,2.94,6.36,5.24,10.16,6.85,3.95,1.67,8.14,2.51,12.44,2.51s8.51-.84,12.46-2.51c3.8-1.61,7.23-3.92,10.16-6.85,2.94-2.94,5.23-6.36,6.84-10.16,1.67-3.95,2.52-8.12,2.52-12.44,0-1.87-.17-3.73-.48-5.56ZM101.22,141.37c-10.12,4.42-21.19,2.76-28.43-3.35,24.01,8.28,40.53-3.83,44.9-25.05,2.18,11.13-4.47,23.16-16.47,28.4Z"/><path class="cls-6" d="M61.02,110.25s.03,0,.04-.01c.03,0,.06,0,.07-.01-1,.51-2.32,1.92-2.81,3.29.31-1.01.94-2.02,1.82-2.94,1.13-1.15,2.59-2.02,4.03-2.42.16-.04.33-.07.48-.1-.56.11-1.07.3-1.52.51-.95.46-1.6.83-1.74,1.51-.07.03-.13.04-.17.07"/><path class="cls-6" d="M65.52,107.91s.09-.03.14-.01c-.03,0-.04,0-.06.01-.03-.01-.06,0-.09,0Z"/><path class="cls-3" d="M97.69,115.54c-1.91,1.54-3.52,2.64-5.09,3.49-2.68,1.48-5.37,2.34-9.01,2.86-9.63,1.43-15.59.64-19.27-.78h0c0-2.11,3.09-7.31,6.53-6.47,7.5,1.81,19.95,4.62,25.48,1.27-.5.01-1,.03-1.51.03-3.61.01-7.37-.66-10.87-1.94-2.09-.76-4.03-1.72-5.91-2.65-.98-.48-1.99-.98-2.99-1.44-3.41-1.57-6.24-2.07-8.66-2.05-.21,0-.43.01-.64.04-.03-.01-.06,0-.07,0,.09-.03.17-.04.27-.04.67-.07,1.38-.09,2.12-.04.06,0,.13.01.2.01.09.01.19.01.28.03.07,0,.16,0,.23.01.03.01.07.01.1.01.14.01.3.04.44.06.1.01.2.03.3.04.19.03.37.06.56.1.3.06.58.11.9.19.33.09.68.17,1.03.27.7.2,1.43.44,2.17.73.37.14.76.3,1.14.46,1.31.56,2.64,1.2,3.92,1.81,2.47,1.18,5.02,2.39,7.75,3.19,3.46,1,7.07,1.27,10.62.81Z"/><path class="cls-7" d="M58.13,115.14c.13.54.43,1.37,1.08,2.29-.85-.98-1.05-1.77-1.08-2.29Z"/><path class="cls-7" d="M58.33,113.51c-.1.34-.17.68-.2,1.03,0-.33.07-.67.2-1.03Z"/><path class="cls-7" d="M64.31,121.09h.01s-.01.01-.01,0Z"/><path class="cls-7" d="M65.74,107.9s-.09.01-.13.01c.01-.01.03-.01.06-.01.01,0,.04-.01.07,0Z"/><path class="cls-1" d="M101.22,141.37c-10.12,4.42-21.19,2.76-28.43-3.35,24.01,8.28,40.53-3.83,44.9-25.05,2.18,11.13-4.47,23.16-16.47,28.4Z"/><path class="cls-11" d="M115.52,83.19c-.1-.23-.2-.46-.27-.66-.09-.21-.17-.43-.24-.66-.24-.64-.5-1.35-.83-2.02l-22.77-60.45c-.21-.58-.78-.98-1.41-.98s-1.18.4-1.4.98l-25.28,67.05-2.92,7.72c-.03.07-.04.16-.06.23-.43,2.02.4,3.31,1.15,4.03,1.38,1.33,3.75,1.97,7.22,1.97.33,0,.66,0,1-.01,3.28-.11,7.35-.73,12.13-1.87l3.93,1.28c3.46,1.13,7.04,2.29,10.87,2.45.3.01.58.03.88.03,6.77,0,13.44-3.36,17.19-8.72.84-1.21,1.97-3.05,1.97-5.13,0-2.51-.68-4.09-1.17-5.24ZM83.44,95.04c-.5.13-1,.26-1.48.37-2.11.51-4.06.93-5.87,1.24-2.44.43-4.59.67-6.47.74-4.26.13-5.64-.74-6.04-1.13-.23-.21-.43-.51-.33-1.15l26.75-70.94,19.69,52.27.87,2.32c-.63.13-1.3.41-2.02.84-.01-.01-.01,0-.03,0-.11.07-.21.13-.33.2-1.1.68-2.15,1.57-3.05,2.35-1.08.94-2.21,1.95-3.29,2.94l-.16.14c-3.45,3.11-6.26,5.13-9.09,6.6-2.81,1.43-5.59,2.29-9.15,3.21ZM113.21,90.23c-.2.46-.5.98-.94,1.61-1.62,2.32-3.95,4.26-6.71,5.59-2.78,1.33-5.8,1.97-8.78,1.84-2.78-.11-5.52-.86-8.21-1.71-.43-.13-.87-.27-1.3-.41-.01,0-.04-.01-.06-.01.06-.01.11-.03.17-.06,2.32-.7,4.46-1.48,6.57-2.57,3.08-1.58,6.09-3.75,9.73-7.04l.16-.14c1.08-.97,2.19-1.97,3.25-2.91.81-.7,1.75-1.48,2.67-2.05,1.25-.78,1.72-.7,1.78-.68.09.03.19.2.28.44.06.14.13.27.21.38,0,.01.01.01.01.03.04.13.09.24.13.37.09.23.17.47.26.7.1.26.21.51.31.77.46,1.07.93,2.17.93,4.06,0,.38-.06.94-.47,1.8Z"/><path class="cls-3" d="M113.21,90.23c-.2.46-.5.98-.94,1.61-1.62,2.32-3.95,4.26-6.71,5.59-2.78,1.33-5.8,1.97-8.78,1.84-2.78-.11-5.52-.86-8.21-1.71,6.16-2.82,15.12-10.09,24.31-6.87.07-.14.19-.3.33-.46Z"/><path class="cls-10" d="M109.69,76.45l-19.69-52.27-26.75,70.94c-.1.64.1.94.33,1.15.4.38,1.78,1.25,6.04,1.13,1.88-.07,4.03-.31,6.47-.74,1.81-.31,3.76-.73,5.87-1.24.48-.11.98-.24,1.48-.37,3.56-.91,6.34-1.78,9.15-3.21,2.84-1.47,5.64-3.49,9.09-6.6l.16-.14c1.08-.98,2.21-2,3.29-2.94.9-.78,1.95-1.67,3.05-2.35.11-.07.21-.13.33-.2.01,0,.01-.01.03,0,.73-.43,1.4-.71,2.02-.84l-.87-2.32ZM105.81,78.11c-1.65-1.9-2.57-4.39-3.36-6.7-2.31-6.64-4.63-13.31-6.38-19.89-1.11-4.18-2.39-8.48-3.41-12.58,3.55,2.94,5.94,13.75,7.34,18.11,2.11,6.61,4.02,13.2,5.91,19.78.16.54.27,1.23-.1,1.28Z"/><path class="cls-1" d="M105.81,78.11c-1.65-1.9-2.57-4.39-3.36-6.7-2.31-6.64-4.63-13.31-6.38-19.89-1.11-4.18-2.39-8.48-3.41-12.58,3.55,2.94,5.94,13.75,7.34,18.11,2.11,6.61,4.02,13.2,5.91,19.78.16.54.27,1.23-.1,1.28Z"/><g class="cls-13"><path class="cls-8" d="M119.71,112.46c-.74-2.2-1.72-3.49-2.9-3.82-2.32-.64-6.01,1.99-9.5,4.97-.39.31-.78.64-1.16.98-.93.81-1.89,1.68-2.85,2.53-.09.08-.17.16-.27.24l-.11.11c-3.84,3.45-6.48,5.45-9.1,6.89-2.79,1.53-5.71,2.47-9.43,3.02-6.11.89-11.33.97-15.52.2-1.33-.24-2.55-.56-3.68-.95h-.01c-1.8-.66-3.33-1.5-4.58-2.55-.01-.03-.04-.04-.05-.05.23,1.06.51,2.11.85,3.13.26.77.54,1.52.86,2.27.6,1.41,1.32,2.75,2.12,4.04,12.01,13.33,28.38,14.3,40.42,7.55,11.11-6.24,12.99-11.58,15.3-21.84.02-.49.07-.98.07-1.48,0-1.76-.16-3.52-.46-5.24Z"/></g><g class="cls-13"><path class="cls-8" d="M99.65,49.8l-9.66-25.63-17.67,46.86c3.99-6.55,8.47-12.78,14.05-18.36,4.69-4.69,9.18-4.99,13.28-2.87Z"/><path class="cls-8" d="M92.66,38.93c.77,3.14,1.71,6.4,2.6,9.63.8.04,1.59.17,2.37.41-1.3-4.14-2.95-8.37-4.97-10.04Z"/><path class="cls-8" d="M100,57.04c-.6-1.88-1.39-4.95-2.37-8.08-.78-.24-1.57-.37-2.37-.41.27.99.54,1.98.81,2.96,1.75,6.58,4.08,13.25,6.38,19.89.8,2.31,1.71,4.8,3.36,6.7.37-.06.26-.74.1-1.28-1.9-6.58-3.8-13.17-5.91-19.78Z"/></g><path class="cls-2" d="M60.91,109.88c.32-.34,1.28-.86,2.23-1.31.46-.21.97-.4,1.52-.51h.01c.27-.07.56-.11.84-.14.03,0,.06-.01.09,0,.04,0,.09-.01.13-.01.21-.03.43-.04.64-.04,2.42-.01,5.18-.1,8.58,1.47,1,.46,2.53,1.32,3.51,1.81,1.88.93,4.41,2.14,6.5,2.9,3.51,1.28,5.23,1.63,8.84,1.61.51,0,3.38-.09,3.88-.1-9.12,4.66-19.29-.12-26.96.75-5.12.58-5.76,2.57-6.4,4.81h-.03c-2.8-1.16-3.75-2.05-4.9-3.43-.07-.07-.13-.16-.19-.23-.47-.61-.95-1.75-1.08-2.29-.03-.27,0-.47,0-.6.03-.34.1-.68.2-1.03.49-1.59,1.65-2.85,2.58-3.63"/><path class="cls-4" d="M113.68,88.43c0,.38-.06.94-.47,1.8-.14.16-1.57,2.39-1.64,2.53.77-6.38-16.84,1.97-23,4.79-.43-.13-.87-.27-1.3-.41.04-.03.07-.04.11-.07,2.32-.7,4.46-1.48,6.57-2.57,3.08-1.58,6.09-3.75,9.73-7.04l.16-.14c1.08-.97,2.19-1.97,3.25-2.91.81-.7,1.75-1.48,2.67-2.05,1.25-.78,1.72-.7,1.78-.68.09.03.19.2.28.44.06.14.13.27.21.38,0,.01.01.01.01.03.04.13.09.24.13.37.09.23.17.47.26.7.1.26.21.51.31.77.46,1.07.93,2.17.93,4.06Z"/><path class="cls-2" d="M113.68,88.43c0,.38-.06.94-.47,1.8-.14.16-1.57,2.39-1.64,2.53.77-6.38-16.84,1.97-23,4.79-.43-.13-.87-.27-1.3-.41.04-.03.07-.04.11-.07,2.32-.7,4.46-1.48,6.57-2.57,3.08-1.58,6.09-3.75,9.73-7.04l.16-.14c1.08-.97,2.19-1.97,3.25-2.91.81-.7,1.75-1.48,2.67-2.05,1.25-.78,1.72-.7,1.78-.68.09.03.19.2.28.44.06.14.13.27.21.38,0,.01.01.01.01.03.04.13.09.24.13.37.09.23.17.47.26.7.1.26.21.51.31.77.46,1.07.93,2.17.93,4.06Z"/></svg>