<?xml version="1.0" encoding="UTF-8"?><svg id="Layer_1" xmlns="http://www.w3.org/2000/svg" viewBox="0 0 16 16"><defs><style>.cls-1{isolation:isolate;opacity:.5;}.cls-2{fill:#eaeaea;}</style></defs><g class="cls-1"><path class="cls-2" d="M14.31,5c.03.07.08.12.13.17.05.05.12.09.19.11.07.02.14.03.22.03.07,0,.14-.02.21-.06.07-.03.12-.08.17-.13.05-.06.09-.12.11-.19.02-.07.03-.14.03-.22s-.02-.14-.06-.21l-1,.49ZM14.87,9.37c-.64,3.14-3.44,5.52-6.81,5.52v1.12c3.9,0,7.16-2.75,7.9-6.41l-1.09-.22ZM8.06,14.88c-3.84,0-6.94-3.09-6.94-6.88H0C0,12.42,3.61,16,8.06,16v-1.12ZM1.12,8c0-3.8,3.11-6.88,6.94-6.88V0C3.61,0,0,3.58,0,8h1.12ZM14.06,7.44h-3.75v1.12h3.75v-1.12ZM8.06,1.12c2.75,0,5.13,1.59,6.25,3.88l1-.49c-.67-1.35-1.7-2.5-2.98-3.29C11.05.42,9.57,0,8.06,0v1.12ZM15.96,9.59c.25-1.23-.81-2.15-1.9-2.15v1.12c.56,0,.88.43.81.81l1.09.22Z"/></g><path class="cls-2" d="M10.69,8c0,.36-.07.7-.21,1.03-.14.33-.33.62-.58.87s-.54.45-.87.58c-.33.14-.68.21-1.03.21h-.15c-.28,0-.55-.11-.75-.31-.2-.2-.31-.47-.31-.75v-3.27c0-.28.11-.55.31-.75.2-.2.46-.31.75-.31h.15c.36,0,.7.07,1.03.21.33.14.62.33.87.58.25.25.45.55.58.87.14.33.21.67.21,1.03ZM7.72,9.64s.01.07.04.09c.03.02.06.04.09.04h.15c.23,0,.46-.05.68-.13.22-.09.41-.22.57-.38.16-.16.29-.36.38-.57.18-.43.18-.92,0-1.35-.09-.22-.22-.41-.38-.58-.17-.16-.36-.29-.57-.38-.22-.09-.44-.13-.68-.13h-.15s-.07.01-.09.04-.04.06-.04.09v3.27Z"/><path class="cls-2" d="M7.72,6.88c0,.25-.21.46-.46.46h-1.49c-.25,0-.46-.21-.46-.46s.21-.46.46-.46h1.49c.25,0,.46.21.46.46ZM7.72,9.12c0,.25-.21.46-.46.46h-1.49c-.25,0-.46-.21-.46-.46s.21-.46.46-.46h1.49c.25,0,.46.21.46.46Z"/></svg>